<svg width="1024" height="1024" viewBox="0 0 1024 1024" fill="none" xmlns="http://www.w3.org/2000/svg">
<rect width="1024" height="1024" rx="512" fill="white"/>
<path fill-rule="evenodd" clip-rule="evenodd" d="M489.376 0.149375C485.672 0.335253 475.57 1.10301 466.927 1.8555C458.284 2.60889 445.556 4.03484 438.642 5.0244C431.727 6.01485 420.817 7.85117 414.397 9.10652C407.976 10.3619 397.066 12.7459 390.152 14.4045C383.237 16.063 370.816 19.4645 362.549 21.9626C354.282 24.4607 340.947 28.9891 332.917 32.0242C324.885 35.0602 313.668 39.559 307.988 42.0212C302.309 44.4834 289.782 50.4719 280.152 55.329C270.521 60.186 257.793 67.0572 251.866 70.5988C245.939 74.1403 235.987 80.4018 229.75 84.5144C223.513 88.6271 212.782 96.1942 205.905 101.331C199.026 106.469 188.37 114.852 182.225 119.962C176.078 125.073 161.713 138.569 150.3 149.954C138.888 161.339 124.543 176.716 118.421 184.124C112.301 191.532 104.027 202.038 100.035 207.471C96.0449 212.904 89.5392 222.198 85.5801 228.124C81.621 234.051 75.2553 244.12 71.4345 250.501C67.6137 256.882 61.5103 267.792 57.8717 274.746C54.2332 281.7 48.7736 292.845 45.7385 299.512C42.7043 306.179 38.5944 315.675 36.6072 320.614C34.6191 325.553 31.0264 335.173 28.6225 341.992C26.2187 348.811 22.4446 360.529 20.2356 368.033C18.0266 375.536 15.0301 386.726 13.5772 392.9C12.1243 399.073 10.1066 408.367 9.09371 413.553C8.07991 418.738 6.8093 425.787 6.26872 429.217C5.72815 432.646 4.69101 439.92 3.96277 445.38C3.23452 450.841 2.04832 462.177 1.32546 470.573C0.557704 479.49 0.00635681 496.682 7.10947e-05 511.914C-0.00711258 527.317 0.530765 544.407 1.31289 553.669C2.04113 562.293 3.0657 572.581 3.58832 576.532C4.11183 580.483 5.3555 588.767 6.35134 594.941C7.34807 601.114 8.97966 610.206 9.9764 615.145C10.9731 620.083 13.2046 629.781 14.9349 636.696C16.6653 643.61 19.704 654.52 21.6876 660.941C23.6721 667.361 26.6291 676.468 28.2597 681.18C29.8904 685.89 33.529 695.588 36.345 702.731C39.1619 709.872 45.5966 724.21 50.645 734.591C55.6924 744.972 63.1778 759.317 67.2779 766.469C71.378 773.62 78.5697 785.33 83.2589 792.492C87.9489 799.653 96.3457 811.573 101.918 818.981C107.492 826.39 115.186 836.207 119.016 840.798C122.845 845.389 126.241 848.824 126.561 848.431C126.882 848.038 128.108 845.494 129.287 842.777C130.466 840.061 133.217 834.762 135.4 831.002C137.583 827.243 141.44 821.4 143.973 818.018C146.505 814.636 152.204 808.076 156.636 803.439C161.07 798.802 168.33 791.96 172.769 788.235C177.21 784.51 184.498 778.765 188.967 775.47C193.435 772.174 200.727 767.043 205.172 764.068C209.617 761.093 219.008 755.165 226.04 750.894C233.073 746.623 248.024 738.011 259.264 731.756C270.506 725.501 286.976 716.625 295.866 712.032C304.756 707.439 317.445 701.218 324.064 698.21C330.683 695.202 343.816 689.702 353.247 685.987C362.68 682.273 373.957 677.357 378.309 675.063C382.66 672.768 388.626 668.714 391.567 666.053C394.508 663.392 397.952 659.441 399.223 657.274C400.493 655.106 402.098 651.206 402.791 648.606C403.483 646.007 404.054 641.439 404.059 638.456C404.066 635.473 403.452 630.661 402.698 627.763C401.943 624.865 399.906 619.793 398.171 616.492C396.437 613.192 391.356 605.679 386.88 599.798C382.404 593.916 376.03 585.467 372.715 581.022C369.401 576.577 364.249 569.304 361.268 564.859C358.286 560.414 352.691 551.524 348.833 545.104C344.976 538.683 337.885 525.349 333.077 515.471C328.268 505.594 322.899 493.829 321.146 489.329C319.393 484.828 316.336 476.29 314.352 470.357C312.368 464.423 309.554 454.973 308.098 449.356C306.642 443.739 304.629 435.104 303.624 430.165C302.62 425.226 300.878 414.922 299.754 407.267C297.918 394.767 297.714 390.103 297.752 361.471C297.789 333.233 298.018 328.174 299.755 317.154C300.834 310.313 302.752 300.213 304.019 294.711C305.286 289.21 307.759 280.267 309.513 274.84C311.268 269.411 314.693 260.259 317.125 254.501C319.557 248.743 324.488 238.992 328.082 232.832C331.677 226.673 337.611 217.65 341.27 212.783C344.929 207.916 351.762 199.932 356.457 195.041C361.151 190.15 368.835 183.057 373.532 179.279C378.23 175.5 385.709 170.013 390.154 167.084C394.598 164.155 402.885 159.433 408.57 156.589C414.255 153.745 423.268 149.78 428.601 147.777C433.933 145.774 443.626 142.741 450.142 141.036C456.657 139.33 467.241 137.136 473.662 136.158C480.082 135.18 492.496 133.943 501.246 133.41C512.599 132.719 521.218 132.717 531.328 133.404C539.122 133.934 550.451 135.169 556.503 136.15C562.555 137.13 571.445 138.954 576.258 140.203C581.071 141.452 588.646 143.709 593.09 145.218C597.535 146.728 606.924 150.715 613.954 154.079C620.984 157.444 630.278 162.5 634.607 165.316C638.936 168.131 645.913 173.107 650.111 176.374C654.309 179.64 661.845 186.435 666.856 191.472C671.868 196.51 679.555 205.403 683.937 211.234C688.32 217.067 693.792 225.071 696.099 229.022C698.405 232.973 702.721 241.257 705.689 247.43C708.657 253.604 713.091 264.716 715.543 272.124C717.994 279.532 721.03 290.241 722.291 295.92C723.551 301.6 725.188 310.297 725.929 315.248C726.67 320.198 727.746 330.098 728.319 337.248C728.971 345.377 729.155 358.32 728.81 371.798C728.457 385.605 727.628 397.722 726.503 405.52C725.538 412.213 723.469 423.527 721.906 430.662C720.345 437.797 717.293 449.581 715.125 456.849C712.957 464.116 709.11 475.632 706.576 482.441C704.042 489.248 699.415 500.475 696.294 507.389C693.173 514.304 688.518 524.002 685.95 528.941C683.382 533.879 678.658 541.961 675.452 546.9C672.246 551.838 664.056 563.202 657.252 572.153C650.449 581.104 642.473 592.014 639.528 596.398C636.581 600.782 632.552 607.602 630.572 611.553C628.592 615.504 626.095 621.565 625.022 625.022C623.949 628.479 622.834 634.613 622.544 638.654C622.228 643.044 622.458 648.284 623.114 651.675C623.717 654.795 625.161 658.988 626.322 660.993C627.483 662.996 630.279 666.337 632.536 668.418C634.793 670.498 639.514 674.06 643.028 676.332C646.542 678.606 654.725 683.002 661.213 686.104C667.701 689.205 683.111 695.579 695.458 700.268C707.805 704.958 724.17 711.55 731.825 714.916C739.48 718.282 754.431 725.334 765.05 730.587C775.668 735.839 789.205 742.877 795.131 746.225C801.058 749.573 812.17 756.462 819.825 761.534C827.48 766.607 838.183 774.334 843.61 778.706C849.037 783.078 857.327 790.494 862.033 795.185C866.738 799.877 873.218 807.021 876.432 811.059C879.645 815.098 884.507 822.169 887.237 826.773C889.967 831.378 893.341 837.771 894.736 840.981C896.131 844.192 897.573 847.149 897.941 847.553C898.309 847.958 902.227 843.917 906.65 838.574C911.071 833.23 918.752 823.404 923.716 816.736C928.68 810.069 936.58 798.755 941.271 791.594C945.962 784.432 953.254 772.491 957.474 765.058C961.695 757.625 967.926 745.906 971.32 739.017C974.714 732.128 979.753 721.238 982.517 714.818C985.28 708.398 988.845 699.71 990.437 695.512C992.03 691.314 994.466 684.647 995.85 680.696C997.234 676.745 999.996 668.259 1001.99 661.838C1003.98 655.418 1006.61 646.326 1007.82 641.634C1009.04 636.943 1011.06 628.457 1012.32 622.777C1013.57 617.098 1015.6 606.592 1016.83 599.43C1018.06 592.269 1019.69 581.359 1020.44 575.185C1021.19 569.012 1022.31 558.506 1022.92 551.838C1023.53 545.171 1024.02 527.189 1024 511.879C1023.98 492.974 1023.48 478.857 1022.46 467.879C1021.62 458.989 1020.13 446.059 1019.13 439.145C1018.14 432.23 1016.31 421.32 1015.06 414.9C1013.81 408.479 1011.58 398.175 1010.11 392.002C1008.64 385.828 1005.6 374.514 1003.34 366.859C1001.09 359.204 997.222 347.283 994.753 340.369C992.286 333.455 987.28 320.726 983.631 312.083C979.982 303.441 973.613 289.702 969.479 281.553C965.345 273.404 959.626 262.696 956.769 257.757C953.913 252.818 948.637 244.13 945.044 238.451C941.451 232.771 935.345 223.606 931.474 218.082C927.604 212.56 920.674 203.183 916.074 197.246C911.474 191.309 904.424 182.695 900.407 178.104C896.391 173.513 888.533 164.847 882.945 158.847C877.358 152.846 867.033 142.672 860 136.238C852.967 129.804 843.98 121.842 840.029 118.545C836.078 115.248 826.784 107.992 819.376 102.42C811.968 96.847 800.048 88.4565 792.886 83.7727C785.725 79.089 774.209 71.9475 767.295 67.904C760.38 63.8605 747.046 56.7855 737.662 52.1816C728.278 47.5787 714.135 41.1619 706.233 37.9229C698.331 34.684 685.199 29.765 677.05 26.9921C668.901 24.2192 654.96 19.9988 646.07 17.6129C637.18 15.227 624.856 12.2377 618.682 10.9698C612.509 9.70097 602.811 7.86464 597.131 6.88856C591.452 5.91158 581.754 4.49819 575.58 3.7475C569.407 2.99591 559.523 1.93991 553.616 1.40023C547.709 0.860559 532.354 0.282273 519.494 0.115253C506.633 -0.0508696 493.08 -0.0356043 489.376 0.149375Z" fill="#0066FF"/>
</svg>
